<svg xmlns="http://www.w3.org/2000/svg" xmlns:xlink="http://www.w3.org/1999/xlink" width="500" zoomAndPan="magnify" viewBox="0 0 375 374.999991" height="500" preserveAspectRatio="xMidYMid meet" version="1.0"><defs><g/><clipPath id="fc0e4ea624"><path d="M 78.183594 28.828125 L 187 28.828125 L 187 222.679688 L 78.183594 222.679688 Z M 78.183594 28.828125 " clip-rule="nonzero"/></clipPath><clipPath id="d417cf863f"><path d="M 188 28.828125 L 296.792969 28.828125 L 296.792969 222.679688 L 188 222.679688 Z M 188 28.828125 " clip-rule="nonzero"/></clipPath></defs><g clip-path="url(#fc0e4ea624)"><path fill="#ffffff" d="M 184.265625 31.859375 C 180.785156 36.890625 178.378906 42.570312 175.996094 48.203125 C 163.433594 77.902344 150.6875 108.371094 149.074219 140.582031 C 148.875 144.5625 148.785156 148.785156 146.648438 152.152344 C 144.890625 154.933594 141.984375 156.742188 139.171875 158.449219 C 124.261719 167.492188 109.269531 176.402344 94.199219 185.175781 C 90.433594 187.367188 86.660156 189.550781 82.882812 191.726562 C 82.128906 192.160156 79.195312 194.507812 78.355469 193.558594 C 77.3125 192.378906 81.320312 190.746094 81.945312 190.386719 C 89.523438 186.03125 97.082031 181.632812 104.617188 177.199219 C 115.617188 170.722656 126.570312 164.164062 137.472656 157.523438 C 140.488281 155.6875 143.632812 153.707031 145.328125 150.613281 C 146.898438 147.75 147.003906 144.339844 147.183594 141.078125 C 149.023438 107.21875 162.5625 75.234375 175.910156 44.0625 C 177.839844 39.554688 179.769531 35.046875 182.058594 30.710938 C 182.617188 29.65625 183.445312 28.445312 184.832031 28.945312 C 185.660156 29.242188 186.175781 30.070312 186.222656 30.949219 C 187.09375 47.285156 188.078125 64.011719 183.65625 79.785156 C 180.769531 90.085938 175.59375 99.941406 175.199219 110.632812 L 181.605469 95.234375 C 181.9375 94.4375 182.675781 93.832031 183.535156 93.8125 C 185.214844 93.773438 185.574219 95.738281 185.574219 97.230469 C 185.550781 108.246094 185.53125 119.261719 185.507812 130.273438 C 185.492188 139.851562 185.425781 149.675781 181.984375 158.609375 C 176.273438 173.425781 162.425781 183.210938 149.683594 192.683594 C 136.960938 202.144531 124.652344 212.152344 112.796875 222.679688 C 115.085938 217.667969 119.46875 213.980469 123.746094 210.511719 C 132.511719 203.410156 141.429688 196.496094 150.492188 189.777344 C 163.609375 180.050781 177.976562 169.390625 181.886719 153.535156 C 183.117188 148.550781 183.199219 143.363281 183.277344 138.226562 C 183.480469 124.371094 183.6875 110.519531 183.890625 96.664062 C 182.90625 97.589844 182.253906 98.808594 181.640625 100.011719 C 175.332031 112.457031 171.75 126.269531 171.210938 140.210938 C 168.847656 127.949219 171.242188 115.269531 174.628906 103.25 C 178.011719 91.234375 182.40625 79.425781 184.144531 67.058594 C 185.785156 55.417969 185.027344 43.589844 184.265625 31.859375 " fill-opacity="1" fill-rule="nonzero"/></g><g clip-path="url(#d417cf863f)"><path fill="#ffffff" d="M 190.707031 31.859375 C 194.191406 36.890625 196.597656 42.570312 198.980469 48.203125 C 211.542969 77.902344 224.289062 108.371094 225.902344 140.582031 C 226.101562 144.5625 226.191406 148.785156 228.324219 152.152344 C 230.082031 154.933594 232.992188 156.742188 235.804688 158.449219 C 250.714844 167.492188 265.703125 176.402344 280.773438 185.175781 C 284.542969 187.367188 288.316406 189.550781 292.09375 191.726562 C 292.84375 192.160156 295.78125 194.507812 296.621094 193.558594 C 297.664062 192.378906 293.65625 190.746094 293.03125 190.386719 C 285.453125 186.03125 277.894531 181.632812 270.359375 177.199219 C 259.355469 170.722656 248.40625 164.164062 237.5 157.523438 C 234.488281 155.6875 231.34375 153.707031 229.648438 150.613281 C 228.074219 147.75 227.96875 144.339844 227.792969 141.078125 C 225.953125 107.21875 212.410156 75.234375 199.066406 44.0625 C 197.136719 39.554688 195.203125 35.046875 192.917969 30.710938 C 192.359375 29.65625 191.53125 28.445312 190.144531 28.945312 C 189.316406 29.242188 188.800781 30.070312 188.753906 30.949219 C 187.878906 47.285156 186.898438 64.011719 191.320312 79.785156 C 194.203125 90.085938 199.382812 99.941406 199.773438 110.632812 L 193.371094 95.234375 C 193.039062 94.4375 192.300781 93.832031 191.441406 93.8125 C 189.761719 93.773438 189.398438 95.738281 189.402344 97.230469 C 189.425781 108.246094 189.445312 119.261719 189.464844 130.273438 C 189.484375 139.851562 189.546875 149.675781 192.992188 158.609375 C 198.703125 173.425781 212.550781 183.210938 225.292969 192.683594 C 238.015625 202.144531 250.324219 212.152344 262.179688 222.679688 C 259.890625 217.667969 255.507812 213.980469 251.226562 210.511719 C 242.460938 203.410156 233.546875 196.496094 224.484375 189.777344 C 211.363281 180.050781 197 169.390625 193.089844 153.535156 C 191.859375 148.550781 191.777344 143.363281 191.699219 138.226562 C 191.496094 124.371094 191.289062 110.519531 191.085938 96.664062 C 192.070312 97.589844 192.722656 98.808594 193.335938 100.011719 C 199.640625 112.457031 203.226562 126.269531 203.765625 140.210938 C 206.128906 127.949219 203.734375 115.269531 200.347656 103.25 C 196.960938 91.234375 192.570312 79.425781 190.828125 67.058594 C 189.191406 55.417969 189.949219 43.589844 190.707031 31.859375 " fill-opacity="1" fill-rule="nonzero"/></g><g fill="#ffffff" fill-opacity="1"><g transform="translate(96.918327, 308.056791)"><g><path d="M 0 -48.484375 L 49.25 -48.484375 L 49.25 -39.90625 L 41.9375 -39.90625 L 41.9375 0 L 31.484375 0 L 31.484375 -20.65625 L 19.171875 -20.65625 L 19.171875 -18.625 C 19.171875 -16.550781 18.726562 -15.054688 17.84375 -14.140625 C 16.957031 -13.234375 15.6875 -12.78125 14.03125 -12.78125 C 12.832031 -12.78125 11.554688 -13.128906 10.203125 -13.828125 C 8.859375 -14.535156 7.597656 -15.457031 6.421875 -16.59375 C 5.253906 -17.738281 4.296875 -18.972656 3.546875 -20.296875 C 2.796875 -21.628906 2.421875 -22.890625 2.421875 -24.078125 C 2.421875 -25.378906 2.769531 -26.5625 3.46875 -27.625 C 4.164062 -28.695312 5.660156 -29.234375 7.953125 -29.234375 L 31.484375 -29.234375 L 31.484375 -39.90625 L 0 -39.90625 Z M 0 -48.484375 "/></g></g></g><g fill="#ffffff" fill-opacity="1"><g transform="translate(145.07504, 308.056791)"><g><path d="M 44.109375 -39.90625 L 44.109375 0 L 33.671875 0 L 33.671875 -17.21875 L 19.171875 -17.21875 L 19.171875 -15.90625 C 19.171875 -13.613281 18.703125 -12.015625 17.765625 -11.109375 C 16.828125 -10.203125 15.476562 -9.75 13.71875 -9.75 C 12.625 -9.75 11.425781 -10.097656 10.125 -10.796875 C 8.832031 -11.492188 7.597656 -12.414062 6.421875 -13.5625 C 5.253906 -14.707031 4.296875 -15.941406 3.546875 -17.265625 C 2.796875 -18.585938 2.421875 -19.847656 2.421875 -21.046875 C 2.421875 -22.390625 2.796875 -23.515625 3.546875 -24.421875 C 4.296875 -25.335938 5.765625 -25.796875 7.953125 -25.796875 L 8.734375 -25.796875 L 8.734375 -39.90625 L 0 -39.90625 L 0 -48.484375 L 51.515625 -48.484375 L 51.515625 -39.90625 Z M 33.671875 -39.90625 L 19.171875 -39.90625 L 19.171875 -25.796875 L 33.671875 -25.796875 Z M 33.671875 -39.90625 "/></g></g></g><g fill="#ffffff" fill-opacity="1"><g transform="translate(195.413613, 308.056791)"><g><path d="M 31.484375 -25.953125 C 33.148438 -25.953125 34.65625 -26.015625 36 -26.140625 C 37.351562 -26.273438 38.785156 -26.523438 40.296875 -26.890625 L 41.078125 -18.078125 C 39.566406 -17.816406 38.082031 -17.632812 36.625 -17.53125 C 35.175781 -17.425781 33.773438 -17.375 32.421875 -17.375 C 29.148438 -17.375 26.332031 -17.660156 23.96875 -18.234375 C 21.601562 -18.804688 19.664062 -19.429688 18.15625 -20.109375 C 17.632812 -19.847656 17.085938 -19.5625 16.515625 -19.25 C 18.441406 -17.070312 20.675781 -14.785156 23.21875 -12.390625 C 25.769531 -10.003906 28.421875 -7.691406 31.171875 -5.453125 L 24.546875 1.328125 C 20.285156 -2.566406 16.453125 -6.253906 13.046875 -9.734375 C 9.648438 -13.222656 7.039062 -16.160156 5.21875 -18.546875 C 4.019531 -20.109375 3.253906 -21.429688 2.921875 -22.515625 C 2.585938 -23.609375 2.421875 -24.597656 2.421875 -25.484375 C 2.421875 -26.785156 2.875 -28.082031 3.78125 -29.375 C 4.6875 -30.675781 6.285156 -31.328125 8.578125 -31.328125 C 10.960938 -31.328125 13.015625 -30.550781 14.734375 -29 C 15.304688 -29.976562 15.707031 -31.039062 15.9375 -32.1875 C 16.164062 -33.332031 16.28125 -34.503906 16.28125 -35.703125 C 16.28125 -37.097656 16.101562 -38.5 15.75 -39.90625 L 0 -39.90625 L 0 -48.484375 L 39.984375 -48.484375 L 39.984375 -39.90625 L 26.03125 -39.90625 C 26.238281 -39.175781 26.40625 -38.328125 26.53125 -37.359375 C 26.664062 -36.398438 26.734375 -35.300781 26.734375 -34.0625 C 26.734375 -32.5 26.578125 -31.09375 26.265625 -29.84375 C 25.953125 -28.601562 25.507812 -27.488281 24.9375 -26.5 C 25.976562 -26.34375 27.03125 -26.210938 28.09375 -26.109375 C 29.15625 -26.003906 30.285156 -25.953125 31.484375 -25.953125 Z M 31.484375 -25.953125 "/></g></g></g><g fill="#ffffff" fill-opacity="1"><g transform="translate(229.387531, 308.056791)"><g><path d="M 42.390625 -39.90625 L 42.390625 0 L 31.953125 0 L 31.953125 -23.296875 L 24.859375 -23.296875 C 22.003906 -23.296875 19.875 -23.15625 18.46875 -22.875 C 17.0625 -22.59375 15.945312 -22.113281 15.125 -21.4375 C 13.976562 -20.5 13.40625 -19.171875 13.40625 -17.453125 C 13.40625 -15.691406 14.207031 -13.863281 15.8125 -11.96875 C 17.425781 -10.070312 19.789062 -7.953125 22.90625 -5.609375 L 16.140625 1.328125 C 13.691406 -0.703125 11.476562 -2.796875 9.5 -4.953125 C 7.53125 -7.109375 5.945312 -9.367188 4.75 -11.734375 C 3.5625 -14.097656 2.96875 -16.578125 2.96875 -19.171875 C 2.96875 -21.046875 3.316406 -22.734375 4.015625 -24.234375 C 4.710938 -25.742188 5.632812 -26.992188 6.78125 -27.984375 C 8.34375 -29.328125 10.226562 -30.3125 12.4375 -30.9375 C 14.644531 -31.5625 17.773438 -31.875 21.828125 -31.875 L 31.953125 -31.875 L 31.953125 -39.90625 L 0 -39.90625 L 0 -48.484375 L 49.71875 -48.484375 L 49.71875 -39.90625 Z M 42.390625 -39.90625 "/></g></g></g><g fill="#ffffff" fill-opacity="1"><g transform="translate(278.011791, 308.056791)"><g><path d="M -16.140625 -47.9375 C -17.015625 -51 -17.878906 -53.503906 -18.734375 -55.453125 C -19.597656 -57.398438 -20.585938 -58.828125 -21.703125 -59.734375 C -22.816406 -60.648438 -24.257812 -61.109375 -26.03125 -61.109375 C -27.070312 -61.109375 -28.03125 -61.003906 -28.90625 -60.796875 C -29.789062 -60.585938 -30.597656 -60.351562 -31.328125 -60.09375 L -34.140625 -68.265625 C -32.890625 -68.785156 -31.601562 -69.175781 -30.28125 -69.4375 C -28.957031 -69.695312 -27.515625 -69.828125 -25.953125 -69.828125 C -23.867188 -69.828125 -21.941406 -69.554688 -20.171875 -69.015625 C -18.410156 -68.472656 -16.765625 -67.445312 -15.234375 -65.9375 C -13.703125 -64.425781 -12.25 -62.226562 -10.875 -59.34375 C -9.5 -56.46875 -8.160156 -52.664062 -6.859375 -47.9375 Z M -16.140625 -47.9375 "/></g></g></g></svg>