<svg xmlns="http://www.w3.org/2000/svg" xmlns:xlink="http://www.w3.org/1999/xlink" width="500" zoomAndPan="magnify" viewBox="0 0 375 374.999991" height="500" preserveAspectRatio="xMidYMid meet" version="1.0"><defs><clipPath id="889c365851"><path d="M 12 12 L 364.03125 12 L 364.03125 365.996094 L 12 365.996094 Z M 12 12 " clip-rule="nonzero"/></clipPath></defs><g clip-path="url(#889c365851)"><path fill="#ffffff" d="M 264.195312 365.980469 C 263.617188 365.980469 263.039062 365.953125 262.464844 365.898438 C 261.886719 365.839844 261.316406 365.753906 260.75 365.640625 C 260.179688 365.53125 259.621094 365.390625 259.066406 365.222656 C 258.511719 365.054688 257.96875 364.859375 257.433594 364.636719 C 256.898438 364.414062 256.375 364.167969 255.867188 363.894531 C 255.355469 363.621094 254.859375 363.324219 254.378906 363.003906 C 253.898438 362.683594 253.433594 362.339844 252.984375 361.972656 C 252.539062 361.605469 252.109375 361.214844 251.699219 360.804688 C 251.289062 360.398438 250.902344 359.96875 250.535156 359.519531 C 250.167969 359.074219 249.824219 358.609375 249.503906 358.128906 C 249.179688 357.648438 248.882812 357.152344 248.609375 356.640625 C 248.335938 356.128906 248.089844 355.609375 247.871094 355.074219 C 247.648438 354.539062 247.453125 353.992188 247.285156 353.441406 C 247.117188 352.886719 246.976562 352.324219 246.863281 351.757812 C 246.75 351.191406 246.664062 350.617188 246.609375 350.042969 C 246.550781 349.464844 246.523438 348.890625 246.523438 348.308594 L 246.523438 302.363281 C 246.796875 299.722656 246.796875 297.078125 246.515625 294.4375 C 246.238281 291.792969 245.6875 289.210938 244.863281 286.683594 C 244.042969 284.15625 242.96875 281.742188 241.640625 279.441406 C 240.308594 277.140625 238.757812 275.003906 236.980469 273.027344 C 235.882812 271.835938 234.964844 270.515625 234.226562 269.070312 C 233.488281 267.625 232.960938 266.105469 232.644531 264.511719 C 232.328125 262.921875 232.230469 261.316406 232.351562 259.699219 C 232.476562 258.082031 232.816406 256.511719 233.375 254.984375 C 233.929688 253.460938 234.683594 252.039062 235.632812 250.722656 C 236.578125 249.40625 237.6875 248.242188 238.957031 247.230469 C 240.226562 246.21875 241.609375 245.398438 243.101562 244.765625 C 244.597656 244.136719 246.152344 243.71875 247.761719 243.515625 C 290.878906 238.390625 330.640625 224.605469 330.640625 149.855469 C 330.644531 146.382812 330.394531 142.933594 329.890625 139.496094 C 329.382812 136.0625 328.628906 132.683594 327.628906 129.363281 C 326.625 126.039062 325.382812 122.808594 323.90625 119.667969 C 322.425781 116.527344 320.726562 113.511719 318.800781 110.625 C 317.035156 107.976562 315.542969 105.179688 314.324219 102.238281 C 313.109375 99.296875 312.1875 96.261719 311.566406 93.140625 C 310.945312 90.019531 310.632812 86.863281 310.632812 83.679688 C 310.628906 80.496094 310.9375 77.34375 311.554688 74.21875 C 313.164062 65.914062 313.164062 57.609375 311.554688 49.300781 C 298.242188 53.804688 285.933594 60.222656 274.621094 68.566406 C 273.558594 69.320312 272.425781 69.949219 271.226562 70.453125 C 270.023438 70.957031 268.78125 71.324219 267.496094 71.550781 C 266.214844 71.78125 264.921875 71.867188 263.617188 71.8125 C 262.316406 71.753906 261.035156 71.554688 259.777344 71.214844 C 251.84375 68.972656 243.792969 67.285156 235.625 66.152344 C 227.457031 65.023438 219.25 64.457031 211.003906 64.457031 C 202.757812 64.457031 194.550781 65.023438 186.382812 66.152344 C 178.214844 67.285156 170.164062 68.972656 162.230469 71.214844 C 160.972656 71.554688 159.691406 71.753906 158.386719 71.8125 C 157.085938 71.867188 155.792969 71.78125 154.511719 71.550781 C 153.226562 71.324219 151.984375 70.957031 150.78125 70.453125 C 149.578125 69.949219 148.449219 69.320312 147.386719 68.566406 C 136 60.125 123.570312 53.703125 110.097656 49.300781 C 108.398438 57.609375 108.398438 65.914062 110.097656 74.21875 C 110.671875 77.382812 110.9375 80.574219 110.898438 83.789062 C 110.859375 87.003906 110.515625 90.1875 109.863281 93.335938 C 109.210938 96.484375 108.265625 99.542969 107.027344 102.511719 C 105.789062 105.476562 104.28125 108.300781 102.5 110.976562 C 100.582031 113.886719 98.890625 116.921875 97.414062 120.078125 C 95.941406 123.234375 94.703125 126.480469 93.699219 129.816406 C 92.699219 133.152344 91.941406 136.542969 91.433594 139.992188 C 90.921875 143.4375 90.664062 146.902344 90.65625 150.386719 C 90.65625 219.128906 123.882812 237.507812 173.714844 243.871094 C 175.347656 244.070312 176.917969 244.492188 178.429688 245.132812 C 179.945312 245.773438 181.339844 246.609375 182.621094 247.640625 C 183.898438 248.671875 185.015625 249.855469 185.964844 251.195312 C 186.914062 252.539062 187.660156 253.984375 188.207031 255.53125 C 188.71875 257.035156 189.027344 258.582031 189.125 260.167969 C 189.21875 261.753906 189.105469 263.324219 188.777344 264.878906 C 188.453125 266.433594 187.925781 267.917969 187.199219 269.332031 C 186.472656 270.742188 185.570312 272.035156 184.496094 273.203125 C 182.777344 275.042969 181.265625 277.035156 179.960938 279.1875 C 178.65625 281.335938 177.582031 283.597656 176.746094 285.96875 C 175.910156 288.34375 175.328125 290.777344 174.996094 293.269531 C 174.664062 295.761719 174.589844 298.265625 174.777344 300.773438 L 174.777344 348.308594 C 174.777344 348.890625 174.746094 349.464844 174.691406 350.042969 C 174.632812 350.617188 174.550781 351.191406 174.4375 351.757812 C 174.324219 352.324219 174.183594 352.886719 174.015625 353.441406 C 173.847656 353.992188 173.652344 354.539062 173.429688 355.074219 C 173.210938 355.609375 172.960938 356.128906 172.691406 356.640625 C 172.417969 357.152344 172.121094 357.648438 171.796875 358.128906 C 171.476562 358.609375 171.132812 359.074219 170.765625 359.519531 C 170.398438 359.96875 170.007812 360.398438 169.601562 360.804688 C 169.191406 361.214844 168.761719 361.605469 168.316406 361.972656 C 167.867188 362.339844 167.402344 362.683594 166.921875 363.003906 C 166.441406 363.324219 165.945312 363.621094 165.433594 363.894531 C 164.925781 364.167969 164.402344 364.414062 163.867188 364.636719 C 163.332031 364.859375 162.789062 365.054688 162.234375 365.222656 C 161.679688 365.390625 161.121094 365.53125 160.550781 365.640625 C 159.984375 365.753906 159.414062 365.839844 158.835938 365.898438 C 158.261719 365.953125 157.683594 365.980469 157.105469 365.980469 C 156.527344 365.980469 155.949219 365.953125 155.371094 365.898438 C 154.796875 365.839844 154.222656 365.753906 153.65625 365.640625 C 153.089844 365.53125 152.527344 365.390625 151.972656 365.222656 C 151.421875 365.054688 150.875 364.859375 150.339844 364.636719 C 149.808594 364.414062 149.285156 364.167969 148.773438 363.894531 C 148.261719 363.621094 147.769531 363.324219 147.285156 363.003906 C 146.804688 362.683594 146.339844 362.339844 145.894531 361.972656 C 145.445312 361.605469 145.019531 361.214844 144.609375 360.804688 C 144.199219 360.398438 143.8125 359.96875 143.445312 359.519531 C 143.078125 359.074219 142.730469 358.609375 142.410156 358.128906 C 142.089844 357.648438 141.792969 357.152344 141.519531 356.640625 C 141.246094 356.128906 141 355.609375 140.777344 355.074219 C 140.554688 354.539062 140.363281 353.992188 140.195312 353.441406 C 140.023438 352.886719 139.886719 352.324219 139.773438 351.757812 C 139.660156 351.191406 139.574219 350.617188 139.515625 350.042969 C 139.460938 349.464844 139.433594 348.890625 139.433594 348.308594 L 139.433594 338.238281 C 135.109375 338.734375 130.769531 338.964844 126.414062 338.929688 C 122.0625 338.890625 117.726562 338.585938 113.414062 338.015625 C 109.097656 337.445312 104.832031 336.613281 100.621094 335.515625 C 96.40625 334.417969 92.277344 333.070312 88.230469 331.464844 C 84.183594 329.859375 80.25 328.011719 76.429688 325.921875 C 72.613281 323.832031 68.933594 321.515625 65.402344 318.976562 C 61.867188 316.433594 58.503906 313.683594 55.308594 310.726562 C 52.113281 307.769531 49.109375 304.628906 46.300781 301.304688 C 40.453125 294.820312 33.621094 289.636719 25.800781 285.75 C 25.242188 285.605469 24.6875 285.4375 24.144531 285.238281 C 23.597656 285.039062 23.066406 284.8125 22.542969 284.5625 C 22.019531 284.308594 21.511719 284.035156 21.015625 283.730469 C 20.519531 283.429688 20.039062 283.105469 19.578125 282.757812 C 19.113281 282.410156 18.667969 282.039062 18.242188 281.648438 C 17.8125 281.253906 17.40625 280.84375 17.019531 280.410156 C 16.632812 279.976562 16.269531 279.527344 15.925781 279.058594 C 15.585938 278.589844 15.265625 278.109375 14.972656 277.609375 C 14.675781 277.109375 14.40625 276.597656 14.160156 276.070312 C 13.917969 275.542969 13.699219 275.007812 13.507812 274.460938 C 13.316406 273.914062 13.152344 273.359375 13.015625 272.792969 C 12.878906 272.230469 12.769531 271.664062 12.6875 271.089844 C 12.605469 270.515625 12.554688 269.9375 12.527344 269.359375 C 12.503906 268.777344 12.507812 268.199219 12.539062 267.621094 C 12.574219 267.042969 12.632812 266.464844 12.722656 265.890625 C 12.8125 265.320312 12.929688 264.753906 13.074219 264.191406 C 13.21875 263.628906 13.390625 263.074219 13.589844 262.53125 C 13.789062 261.988281 14.011719 261.453125 14.265625 260.929688 C 14.515625 260.40625 14.792969 259.898438 15.09375 259.402344 C 15.394531 258.910156 15.71875 258.429688 16.070312 257.964844 C 16.417969 257.503906 16.789062 257.058594 17.179688 256.628906 C 17.574219 256.203125 17.984375 255.796875 18.417969 255.410156 C 18.851562 255.023438 19.300781 254.660156 19.769531 254.316406 C 20.238281 253.976562 20.71875 253.65625 21.21875 253.363281 C 21.71875 253.066406 22.230469 252.796875 22.757812 252.554688 C 23.285156 252.308594 23.820312 252.089844 24.367188 251.898438 C 24.914062 251.707031 25.472656 251.542969 26.035156 251.40625 C 26.597656 251.269531 27.167969 251.160156 27.742188 251.082031 C 28.316406 251 28.890625 250.945312 29.472656 250.921875 C 30.050781 250.898438 30.628906 250.902344 31.207031 250.933594 C 31.789062 250.96875 32.363281 251.027344 32.9375 251.117188 C 33.507812 251.207031 34.078125 251.324219 34.636719 251.46875 C 41.433594 253.945312 47.824219 257.214844 53.808594 261.285156 C 59.789062 265.351562 65.179688 270.089844 69.980469 275.503906 C 87.652344 293.175781 105.324219 308.726562 138.902344 302.363281 C 138.605469 297.621094 138.800781 292.894531 139.488281 288.191406 C 140.171875 283.488281 141.332031 278.90625 142.96875 274.441406 C 106.5625 265.253906 54.609375 239.097656 54.609375 150.738281 C 54.597656 145.535156 54.964844 140.359375 55.714844 135.207031 C 56.46875 130.058594 57.589844 124.992188 59.085938 120.007812 C 60.585938 115.023438 62.4375 110.175781 64.648438 105.464844 C 66.859375 100.753906 69.402344 96.226562 72.28125 91.890625 C 73.355469 90.28125 74.089844 88.53125 74.488281 86.636719 C 74.882812 84.742188 74.914062 82.839844 74.578125 80.933594 C 73.6875 76.191406 73.144531 71.40625 72.945312 66.585938 C 72.746094 61.761719 72.894531 56.949219 73.386719 52.148438 C 73.878906 47.347656 74.714844 42.605469 75.890625 37.925781 C 77.066406 33.246094 78.574219 28.671875 80.410156 24.207031 C 80.910156 23.011719 81.535156 21.882812 82.285156 20.824219 C 83.035156 19.765625 83.890625 18.800781 84.851562 17.929688 C 85.8125 17.058594 86.859375 16.304688 87.988281 15.664062 C 89.117188 15.023438 90.300781 14.515625 91.542969 14.136719 C 97.550781 12.367188 119.109375 8.832031 159.933594 35.339844 C 168.164062 33.359375 176.484375 31.871094 184.894531 30.875 C 193.300781 29.875 201.742188 29.378906 210.207031 29.378906 C 218.675781 29.378906 227.113281 29.875 235.523438 30.875 C 243.929688 31.871094 252.253906 33.359375 260.484375 35.339844 C 301.308594 8.832031 322.867188 12.191406 328.699219 14.136719 C 329.9375 14.515625 331.125 15.023438 332.253906 15.664062 C 333.378906 16.304688 334.425781 17.058594 335.386719 17.929688 C 336.351562 18.800781 337.207031 19.765625 337.957031 20.824219 C 338.703125 21.882812 339.332031 23.011719 339.832031 24.207031 C 341.671875 28.6875 343.179688 33.273438 344.355469 37.96875 C 345.535156 42.664062 346.371094 47.421875 346.863281 52.238281 C 347.359375 57.054688 347.503906 61.878906 347.300781 66.71875 C 347.101562 71.554688 346.554688 76.351562 345.664062 81.113281 C 345.296875 82.851562 345.285156 84.597656 345.621094 86.34375 C 345.957031 88.089844 346.621094 89.703125 347.605469 91.183594 C 350.492188 95.535156 353.042969 100.070312 355.257812 104.796875 C 357.472656 109.523438 359.328125 114.386719 360.824219 119.382812 C 362.320312 124.382812 363.441406 129.46875 364.191406 134.632812 C 364.9375 139.796875 365.300781 144.988281 365.277344 150.207031 C 365.277344 239.804688 313.675781 265.78125 276.917969 273.910156 C 280.191406 283.488281 281.484375 293.328125 280.808594 303.421875 L 280.808594 348.308594 C 280.808594 349.425781 280.707031 350.535156 280.5 351.632812 C 280.289062 352.730469 279.980469 353.796875 279.570312 354.835938 C 279.160156 355.875 278.65625 356.867188 278.058594 357.808594 C 277.457031 358.753906 276.777344 359.632812 276.011719 360.445312 C 275.246094 361.257812 274.410156 361.996094 273.507812 362.648438 C 272.601562 363.304688 271.644531 363.871094 270.632812 364.34375 C 269.621094 364.820312 268.574219 365.191406 267.492188 365.46875 C 266.410156 365.742188 265.3125 365.914062 264.195312 365.980469 Z M 264.195312 365.980469 " fill-opacity="1" fill-rule="nonzero"/></g></svg>