<svg xmlns="http://www.w3.org/2000/svg" xmlns:xlink="http://www.w3.org/1999/xlink" width="500" zoomAndPan="magnify" viewBox="0 0 375 374.999991" height="500" preserveAspectRatio="xMidYMid meet" version="1.0"><defs><clipPath id="e066874d81"><path d="M 38 12 L 278 12 L 278 363.613281 L 38 363.613281 Z M 38 12 " clip-rule="nonzero"/></clipPath></defs><path fill="#ffffff" d="M 330.9375 222.703125 C 330.9375 211.839844 322.679688 203 312.492188 203 L 165.179688 203 C 154.992188 203 146.734375 211.839844 146.734375 222.703125 C 146.734375 233.5625 154.976562 242.40625 165.179688 242.40625 L 312.492188 242.40625 C 322.679688 242.421875 330.9375 233.578125 330.9375 222.703125 Z M 330.9375 222.703125 " fill-opacity="1" fill-rule="nonzero"/><g clip-path="url(#e066874d81)"><path fill="#ffffff" d="M 59.875 278.792969 L 123.007812 342.628906 C 137.25 356.960938 156.9375 363.882812 178.675781 363.882812 C 200.410156 363.882812 220.097656 356.390625 234.371094 342.015625 L 272.253906 303.414062 C 279.71875 295.890625 279.453125 283.433594 271.683594 275.605469 C 263.910156 267.773438 251.554688 267.507812 244.105469 275.03125 L 204.933594 313.195312 C 198.171875 320.027344 188.804688 322.882812 178.453125 322.882812 C 168.105469 322.882812 158.753906 320.027344 151.960938 313.195312 L 89.046875 249.328125 C 82.269531 242.492188 78.859375 232.496094 78.859375 222.058594 C 78.859375 211.621094 82.269531 202.195312 89.046875 195.359375 L 151.769531 131.246094 C 158.546875 124.410156 168.105469 121.804688 178.441406 121.804688 C 188.773438 121.804688 198.140625 124.660156 204.917969 131.496094 L 244.089844 169.640625 C 251.554688 177.179688 263.910156 176.917969 271.683594 169.085938 C 279.453125 161.238281 279.71875 148.78125 272.253906 141.257812 L 234.371094 102.671875 C 224.871094 93.21875 212.839844 86.335938 199.355469 83.207031 L 198.859375 83.101562 L 234.679688 46.464844 C 242.171875 38.941406 241.910156 26.46875 234.136719 18.636719 C 226.363281 10.808594 213.996094 10.558594 206.515625 18.082031 L 59.875 165.921875 C 45.632812 180.296875 38.179688 200.132812 38.179688 222.058594 C 38.179688 243.984375 45.632812 264.449219 59.875 278.792969 Z M 59.875 278.792969 " fill-opacity="1" fill-rule="nonzero"/></g></svg>